<svg width="300" height="300" viewBox="0 0 300 300" fill="none" xmlns="http://www.w3.org/2000/svg">
  <rect width="300" height="300" fill="#fff"/>
  <path d="M10 48h226v28H38v148h198v28H10V48Z" fill="#000"/>
  <path d="M226 4h68v28h-40v236h40v28h-68v-28h18V32h-18V4Z" fill="#000"/>
  <path d="M268 48h22v204h-22v-28h-6V76h6V48Z" fill="#000"/>
  <rect x="66" y="107" width="65" height="29" fill="#76B6FF"/>
  <rect x="146" y="107" width="64" height="29" fill="#000"/>
  <rect x="226" y="107" width="28" height="29" fill="#76B6FF"/>
  <rect x="66" y="155" width="107" height="29" fill="#76B6FF"/>
  <rect x="188" y="155" width="66" height="29" fill="#76B6FF"/>
  <rect x="66" y="204" width="66" height="29" fill="#000"/>
  <rect x="147" y="204" width="65" height="29" fill="#76B6FF"/>
  <rect x="227" y="204" width="27" height="29" fill="#000"/>
</svg>
