<svg width="300" height="300" viewBox="0 0 300 300" fill="none" xmlns="http://www.w3.org/2000/svg">
  <rect width="300" height="300" fill="#ffffff"/>
  <path d="M8 48h226v30H38v144h196v30H8V48Z" fill="#000000"/>
  <path d="M225 5h68v30h-38v230h38v30h-68v-30h18V35h-18V5Z" fill="#000000"/>
  <path d="M268 48h24v204h-24v-30h-7V78h7V48Z" fill="#000000"/>
  <rect x="66" y="106" width="66" height="30" fill="#76B6FF"/>
  <rect x="146" y="106" width="64" height="30" fill="#000000"/>
  <rect x="226" y="106" width="28" height="30" fill="#76B6FF"/>
  <rect x="66" y="154" width="108" height="30" fill="#76B6FF"/>
  <rect x="188" y="154" width="66" height="30" fill="#76B6FF"/>
  <rect x="66" y="203" width="66" height="30" fill="#000000"/>
  <rect x="147" y="203" width="65" height="30" fill="#76B6FF"/>
  <rect x="227" y="203" width="27" height="30" fill="#000000"/>
</svg>
